<svg xmlns="http://www.w3.org/2000/svg" width="3840" height="3840" viewBox="0 0 3840 3840"><path d="m2345.997 2266.946-6.075-19.444c-1.67-5.348-9.771-9.723-18.002-9.723s-21.693-4.712-29.916-10.472c-10.684-7.483-16.945-8.479-21.935-3.49-4.99 4.99-13.223 1.504-28.846-12.212-25.272-22.19-32.834-23.509-45.002-7.853-8.397 10.802-9.237 10.802-17.633 0-4.85-6.239-11.359-11.343-14.466-11.343-3.108 0-20.46 16.042-38.563 35.648-49.884 54.03-67.552 46.698-39.87-16.545 10.95-25.013 5.76-42.907-10.62-36.622-5.467 2.098-20.308 20.023-32.98 39.833-17.421 27.233-26.822 36.02-38.535 36.02-16.706 0-62.446-17.17-62.446-23.44 0-2.103 13.125-18.42 29.167-36.263 43.623-48.52 40.161-51.683-36.357-33.214-24.58 5.933-46.633 8.846-49.005 6.474-2.373-2.372-5.66-20.557-7.307-40.41l-2.994-36.098-21.417 20.758c-12.857 12.462-25.338 19.255-31.227 16.995-10.79-4.14-26.357-52.822-20.119-62.915 2.152-3.483.733-6.332-3.154-6.332s-8.746 4.375-10.798 9.722c-2.052 5.348-9.252 9.723-16 9.723-8.98 0-12.27-4.648-12.27-17.334v-17.334l-15.612 14.668c-11.869 11.15-21.584 14.14-40.51 12.472-23.255-2.05-25.11-.913-28.137 17.25-4.495 26.965-99.488 126.388-120.759 126.388-10.222 0-15.421-3.79-15.558-11.342-.197-10.803-.617-10.803-8.817 0-4.735 6.238-11.726 11.342-15.534 11.342-3.809 0-11.695 4.771-17.527 10.602-18.775 18.775-23.987.914-8.866-30.383 13.544-28.032 20.206-77.455 10.44-77.446-2.673 0-4.86-4.204-4.86-9.35 0-12.24 25.047-29.533 42.778-29.533 7.682 0 17.598-4.375 22.036-9.723 12.476-15.032-18.088-12.681-42.13 3.241-26.886 17.807-37.387 16.26-51.472-7.585-22.08-37.38-54.454-63.711-78.33-63.711-11.961 0-23.55-2.917-25.753-6.482-2.203-3.564-11.854-6.484-21.447-6.486-9.593 0-39.038-4.511-65.433-10.018-30.052-6.27-50.276-7.728-54.103-3.902-3.36 3.361-10.249 46.515-15.307 95.897-7.845 76.59-11.193 91.454-22.773 101.13-15.728 13.14-32.238 14.577-43.066 3.75-5.801-5.801-10.98-3.284-21.96 10.676-15.74 20.01-49.295 51.663-70.545 66.547-12.245 8.577-13.852 8.309-16.756-2.798-2.529-9.67-7.813-11.747-24.84-9.759-19.954 2.33-21.993.862-26.349-18.967-3.748-17.065-2.33-22.87 6.88-28.18 24.773-14.28 35.422-29.815 35.422-51.674 0-31.306-8.67-33.162-29.196-6.249-17.969 23.557-51.704 47.928-66.406 47.972-23.344.07 9.305-59.156 37.553-68.122 6.973-2.213 12.602-8.931 12.509-14.93-.202-12.952-24.47-66.13-25.232-55.29-1.408 20.048-84.618 28.851-107.469 11.37-12.81-9.799-12.814-10.027-.381-19.238 6.92-5.127 15.426-9.321 18.904-9.321s4.58-1.743 2.45-3.873-13.24 1.517-24.688 8.102c-15.542 8.94-21.54 9.922-23.674 3.873-3.117-8.837-21.222-11.326-21.222-2.917 0 2.852 3.452 8.636 7.67 12.855 11.935 11.935 1.18 16.922-22.098 10.246-30.363-8.709-30.18-24.513.51-43.887 52.977-33.443 34.34-35.404-23.226-2.444-19.406 11.11-25.404 17.72-20.516 22.606 3.798 3.799 5.93 13.805 4.736 22.237-1.646 11.64-6.85 15.829-21.613 17.398-10.694 1.137-30.177 10.588-43.293 21.003-21.092 16.747-27.275 18.467-53.473 14.877-30.655-4.202-38.72-16.535-21.845-33.41 6.05-6.049 5.33-7.777-3.24-7.777-16.01 0-13.499-17.555 5.184-36.238 18.575-18.575 20.276-23.251 6.537-17.979-12.875 4.94-19.923-14.577-9.709-26.884 9.74-11.737 30.048-12.642 34.528-1.538 1.798 4.456 3.5.606 3.78-8.556.282-9.161 10.72-28.583 23.198-43.16 13.74-16.052 22.685-33.38 22.685-43.944 0-16.169 15.662-34.864 59.954-71.562 15.047-12.468 13.55-12.86 55.614 14.515 44.084 28.689 77.53 62.616 89.403 90.69 8.84 20.902 20.008 32.022 26.07 25.96 1.83-1.83 9.102-25.866 16.159-53.413s19.948-60.56 28.648-73.363c28.757-42.32 17.807-65.372-46.557-98.012-24.808-12.58-47.956-19.343-66.39-19.397-25.356-.073-27.94-1.47-24.815-13.415 2.222-8.5.734-12.393-4.106-10.74-4.175 1.426-6.747 8.484-5.714 15.684 1.475 10.288-2.69 13.886-19.445 16.804-11.727 2.041-30.8 5.723-42.386 8.181-19.143 4.061-21.044 3.064-20.835-10.925.126-8.466 4.398-22.685 9.492-31.597s9.367-22.833 9.493-30.936c.224-14.383-.17-14.47-16.629-3.687-12.338 8.084-19.683 9.264-27.394 4.4-8.23-5.19-17.437-1.19-42.057 18.27-34 26.876-35.652 27.523-48.874 19.145-9.963-6.313-4.395-46.08 6.452-46.08 3.492 0 4.546-2.917 2.343-6.482s-.745-6.482 3.24-6.482c3.987 0 5.445-2.916 3.242-6.481s-1.228-6.482 2.168-6.482c8.473 0 65.98-85.16 65.653-97.222-.147-5.415-12.795 4.5-28.551 22.382-23.106 26.223-29.996 30.685-37.616 24.361-5.13-4.258-11.054-6.016-13.162-3.908s-6.997 1.878-10.864-.511c-4.641-2.869-2.217-11.104 7.134-24.236 23.155-32.518.886-17.508-25.384 17.11-13.306 17.534-27.839 33.073-32.295 34.53-12.985 4.245-9.381-16.169 7.472-42.32 8.565-13.292 17.454-31.459 19.754-40.37 3.498-13.562 3.02-14.355-2.933-4.862-3.912 6.238-14.989 11.358-24.615 11.377s-25.132 5.123-34.458 11.342c-49.122 32.762-123.931 93.281-160.276 129.66-24.054 24.077-45.574 40.316-51.851 39.127-16.129-3.056-16.807-34.692-1.507-70.258 7.403-17.21 13.46-37.312 13.46-44.672 0-14.827 18.333-18.383 30.751-5.964 5.43 5.43 12.29 5.538 25.602.405 10.001-3.857 27.487-8.846 38.856-11.087 15.487-3.052 40.28-24.477 98.843-85.414 42.994-44.736 78.17-82.77 78.17-84.518s7.446-9.035 16.546-16.193 15.057-14.502 13.238-16.32c-1.818-1.819 3.132-8.527 11.001-14.907 7.87-6.38 12.311-13.605 9.87-16.056-2.44-2.45-19.144 9.303-37.12 26.118-34.057 31.855-50.486 34.641-57.016 9.669-1.85-7.072-5.948-11.26-9.107-9.307-7.922 4.896-7.272 41.674.737 41.674 3.565 0 6.481 4.507 6.481 10.016 0 7.847-4.692 9.136-21.665 5.952-21.072-3.954-22.151-3.072-39.41 32.205-22.146 45.263-60.556 87.917-68.132 75.658-3.847-6.224-9.977-2.27-23.045 14.863-9.793 12.839-21.925 23.343-26.961 23.343-15.187 0-18.163-20.387-6.072-41.6l11.385-19.974-19.128 18.207c-10.52 10.014-27.157 34.076-36.97 53.472-9.814 19.396-22.6 35.697-28.413 36.225-5.814.528-16.403 1.257-23.533 1.62-8.067.411-13.715 5.938-14.954 14.635-1.212 8.507-8.185 15.528-17.824 17.947-8.708 2.186-15.833 8.294-15.833 13.573 0 12.385-9.496 12.169-29.077-.661-15.684-10.277-42.22-7.628-42.22 4.215 0 3.324-9.715 6.045-21.59 6.045-24.81 0-41.079 21.498-33.747 44.598 3.126 9.848 1.593 13.735-5.417 13.735-5.377 0-11.579-2.917-13.782-6.482-2.203-3.564-9.667-6.481-16.586-6.481-15.034 0-16.218-18.102-3.39-51.852 4.743-12.477 17.01-45.91 27.262-74.298 15.47-42.835 24.536-57.165 53.307-84.259 51.953-48.923 84.158-97.9 153.434-233.338 34.554-67.556 69.472-131.704 77.594-142.55s20.659-31.388 27.858-45.647c14.346-28.416 50.398-66.046 85.34-89.078 12.326-8.126 32.04-27.865 43.807-43.866 41.635-56.615 67.654-84.086 134.63-142.149 62.706-54.362 169.59-131.25 196.127-141.086 16.117-5.974 60.378-34.969 78.872-51.668 24.178-21.832 219.536-118.739 239.145-118.627 23.373.133 27.407 3.832 49.365 45.271 10.39 19.606 25.518 44.462 33.62 55.234 17.218 22.896 30.273 74.436 24.59 97.083-2.623 10.446.817 23.541 10.15 38.641l14.115 22.84 69.603-1.575c57.757-1.307 71.448.265 80.45 9.238 21.28 21.209 73.608 22.94 56.11 1.857-4.045-4.874-5.781-11.407-3.858-14.518 1.922-3.11-4.705-15.634-14.728-27.83s-24.358-34.233-31.854-48.971c-7.497-14.739-22.546-35.713-33.443-46.61-22.41-22.41-95.19-61.372-134.327-71.91l-26.054-7.016-4.415-43.093c-4.184-40.834-3.5-44.05 13.045-61.32 11.608-12.116 29.527-20.924 53.46-26.28 58.087-13 67.36-29.9 38.94-70.975-10.415-15.055-11.313-26.732-7.967-103.704 4.565-105.017 15.291-147.335 48.683-192.063l25.404-34.028h256.758l6.955 15.266c11.596 25.45 74.86 56.365 133.979 65.471 44.676 6.882 58.752 12.424 96.02 37.806 36.208 24.662 47.294 29.154 64.89 26.299 23.941-3.885 39.195 8.541 46.065 37.529 3.699 15.605.954 18.608-31.537 34.504-19.573 9.577-35.588 19.918-35.588 22.98s-5.833 7.42-12.963 9.682-12.963 8.293-12.963 13.4-4.132 9.285-9.182 9.285c-19.447 0-13.365 16.716 11.919 32.755 58.51 37.119 63.833 59.353 23.19 96.875-14.26 13.164-25.927 28.62-25.927 34.347 0 14.2 13.787 43.43 20.485 43.43 2.993 0 5.441 5.834 5.441 12.964s-2.917 12.963-6.481 12.963-5.833 2.187-5.04 4.86c1.416 4.777-8.127 21.442-38.047 66.436-8.297 12.477-38.022 45.29-66.056 72.916-45.34 44.682-53.66 50.232-75.303 50.232-16.497 0-30.531-5.217-43.588-16.204-10.591-8.912-24.404-16.204-30.695-16.204-9.87 0-10.839 3.95-7.064 28.822 2.406 15.852 7.946 33.126 12.31 38.386 4.583 5.52 7.094 22.79 5.942 40.854l-1.996 31.29-25.761-.868c-31.377-1.058-39.066 7.682-49.231 55.96-4.128 19.607-11.784 43.982-17.013 54.166-7.583 14.769-8.188 25.92-2.989 55.092 5.617 31.514 5.018 37.735-4.33 44.952-5.967 4.608-18.142 7.524-27.054 6.482-14.172-1.657-17.729-7.587-28.352-47.265-6.68-24.954-14.52-51.204-17.421-58.334s-7.118-19.54-9.37-27.581c-9.163-32.698-56.75-72.882-86.31-72.882-9.434 0-13.422 6.04-16.437 24.89-2.189 13.69-11.068 35.335-19.73 48.1-22.941 33.806-23.85 58.979-2.729 75.592 9.408 7.4 26.416 13.455 37.796 13.455 23.027 0 64.764 35.487 64.764 55.064 0 6.045 6.174 19.66 13.72 30.257 12.41 17.429 16.12 18.861 38.888 15.014 38.274-6.466 35.788 5.461-13.816 66.29-10.636 13.041-7.24 25.171 9.566 34.165 22.684 12.14 26.894 50.442 13.96 126.998-5.756 34.07-10.466 64.571-10.466 67.78 0 3.208-9.052 16.142-20.116 28.743s-17.998 22.911-15.41 22.911 1.075 4.375-3.363 9.722-6.186 9.722-3.885 9.722.09 6.563-4.916 14.584c-5.006 8.02-10.962 22.605-13.237 32.41-4.878 21.025 7.104 103.338 15.828 108.73 3.32 2.051 7.077 13.229 8.347 24.838 2.587 23.63 10.625 33.245 42.338 50.65 14.672 8.051 29.21 25.701 44.505 54.03 31.042 57.494 47.131 67.702 47.131 29.904 0-12.243 4.613-25.72 10.466-30.577 8.924-7.407 12.025-6.762 21.064 4.378 5.83 7.185 20.08 18.657 31.665 25.493s21.065 14.872 21.065 17.857-7.292 16.158-16.204 29.274c-19.83 29.18-21.52 62.906-3.634 72.478 7.01 3.751 14.128 4.205 16.093 1.025 5.59-9.043 67.152-30.703 123.652-43.504 52.415-11.875 90.742-31.08 83.953-42.066-2.035-3.292-.611-5.985 3.164-5.985 3.8 0 6.864-12.847 6.864-28.784 0-15.832 2.955-30.61 6.567-32.843 8.058-4.98 73.044 26.085 85.862 41.045 5.117 5.973 11.115 15.964 13.327 22.202 4.066 11.465 36.837 16.59 36.837 5.76 0-3.07-7.292-4.189-16.204-2.485-11.708 2.238-16.204.28-16.204-7.058 0-5.586 3.866-12.489 8.59-15.34 15.604-9.414 17.099-27.34 7.571-90.807-18.198-121.229 4.59-167.377 91.956-186.224 31.12-6.713 31.532-7.64 57.805-130.003 10.464-48.733 48.406-148.481 73.667-193.667 55.91-100.008 77.705-135.317 102.45-165.972 15.791-19.56 34.031-45.81 40.535-58.333s34.647-44.896 62.542-71.942c39-37.812 70.933-60.525 138.217-98.305 118.532-66.556 239.696-124.074 305.353-144.955 29.903-9.51 57.841-20.003 62.085-23.318 9.454-7.386 77.295-19.902 208.168-38.406 94.482-13.359 101.443-13.528 145.833-3.547 25.639 5.764 68.49 13.89 95.227 18.058 74.247 11.572 169.708 65.228 223.534 125.64 22.29 25.019 42.56 52.05 45.045 60.072 2.484 8.02 7.236 14.583 10.561 14.583s6.045 5.833 6.045 12.963c0 11.673-4.354 12.973-43.75 13.062-47.507.108-72.844 8.583-50.05 16.741 7.03 2.516 17.156 7.969 22.504 12.117 5.347 4.148 30.878 15.633 56.735 25.522 50.418 19.283 49.024 17.386 56.813 77.3l4.071 31.318-28.023-1.711c-36.978-2.259-45.669-5.685-41.561-16.39 3.79-9.876 1.442-10.49-44.804-11.705l-32.417-.852 13.39 14.448c8.593 9.27 30.078 18.243 59.963 25.04 30.935 7.037 46.573 13.683 46.573 19.796 0 5.061-6.562 9.508-14.583 9.882-10.213.476-6.99 3.03 10.755 8.522 15.669 4.85 27.339 13.248 30.579 22.006 6.707 18.133-2.621 18.375-46.195 1.2-18.601-7.332-46.157-12.58-63.435-12.08-16.8.485-23.984 2.146-15.963 3.691 15.807 3.045 17.423 6.833 8.752 20.522-4.232 6.68-10.252 7.357-24.206 2.721-16.953-5.632-18.915-9.518-22.482-44.54-4.89-48.002-27.14-123.293-51.911-175.653-33.65-71.127-104.885-118.945-216.403-145.265-209.293-49.397-499.288 66.118-713.628 284.262-54.332 55.296-112.76 140.971-112.76 165.344 0 6.475-6.821 18.593-15.158 26.93-33.09 33.091-70.877 125.658-101.388 248.373-5.013 20.164-4.425 21.065 13.753 21.065 10.444 0 25.45-3.981 33.345-8.848 7.896-4.866 28.939-12.407 46.763-16.758s52.824-17.55 77.778-29.33c24.953-11.78 75.76-31.219 112.906-43.195 37.144-11.977 77.348-29.558 89.341-39.068 11.994-9.51 32.767-19.144 46.163-21.407 17.055-2.881 29.637-10.733 41.971-26.191l17.615-22.076-25.989-6.999c-34.087-9.178-35.324-25.525-1.684-22.264 13.368 1.296 46.18 4.21 72.917 6.477 26.736 2.266 51.136 6.495 54.222 9.399 3.11 2.926.944 11.942-4.861 20.23-15.445 22.052-13.915 50.956 2.699 50.956 35.945 0 106.794 44.054 131.274 81.627 29.729 45.627 25.904 54.602-39.121 91.782-119.053 68.072-174.806 93.442-276.138 125.653-57.557 18.296-107.566 35.39-111.13 37.988-3.565 2.598-26.899 12.769-51.852 22.602-52.012 20.495-179.14 86.635-186.243 96.895-10.542 15.227-4.909 49.645 10.455 63.886 39.594 36.7 177.86 112.186 227.232 124.058 34.884 8.387 47.872 23.101 20.392 23.101-9.209 0-16.744 2.917-16.744 6.481 0 8.882 13.916 8.129 46.764-2.53 43.934-14.254 58.062-16.614 138.933-23.205 75.353-6.142 77.015-6.632 156.124-46.075 123.508-61.578 233.17-139.318 317.057-224.76 24.11-24.559 28.926-26.89 43.826-21.226 14.474 5.503 16.74 10.199 16.74 34.687 0 20.091-3.767 31.732-12.963 40.054-15.259 13.81-17.04 23.843-3.295 18.569 22.081-8.474 17.97 22.057-8.848 65.69-9.619 15.651-16.04 19.246-32.91 18.424-18.248-.889-20.503.725-17.43 12.475 4.169 15.945 4.08 16.022-89.832 78.355-128.656 85.393-216.13 124.555-351.762 157.482-65.288 15.85-76.063 16.643-176.478 12.99-76.928-2.8-119.067-7.409-150.138-16.424-50.052-14.522-167.454-64.81-167.454-71.727 0-2.584-15.631-15.464-34.737-28.622-23.028-15.86-38.673-32.655-46.417-49.828-13.635-30.236-31.606-37.27-67.639-26.475-37.975 11.378-57.12 9.273-65.963-7.252-4.293-8.02-6.583-15.93-5.09-17.575 1.495-1.646-5.378-7.48-15.27-12.963-20.528-11.38-27.657-5.795-34.851 27.298-2.293 10.545-8.176 17.822-14.408 17.819-10.907-.01-72.043-28.93-110.041-52.062-16.87-10.27-23.757-11.548-30.787-5.714-9.798 8.132-12.365 25.373-3.777 25.373 2.903 0 26.022 17.461 51.375 38.802 26.627 22.413 61.064 44.401 81.537 52.061 19.492 7.293 45.64 22.645 58.106 34.115s36.061 31.064 52.433 43.54c21.84 16.644 31.612 29.59 36.692 48.612 20.456 76.589 20.545 76.737 51.24 85.582 15.835 4.564 31.523 11.029 34.862 14.368 7.853 7.853 10.842 91.253 3.27 91.253-3.166 0-7.123-4.375-8.794-9.722m-79.987-105.396c-3.36-6.279-12.891-17.216-21.18-24.306-15.055-12.875-15.062-12.875-5.751.073 23.776 33.066 38.98 46.745 26.931 24.233m-1100.206-18.089c2.214-5.768 1.127-8.37-2.547-6.098-3.524 2.177-6.407 6.704-6.407 10.058 0 9.324 4.645 7.269 8.954-3.96m943.823-37.742c20.963-9.59 24.711-33.183 6.794-42.772-7.556-4.044-35.387-6.363-63.588-5.3-49.096 1.852-50.193 2.26-52.167 19.358-1.676 14.52 2.15 19.663 22.685 30.49 25.85 13.628 53.862 13.052 86.276-1.776m751.85-82.522c0-7.405-17.576-7.573-22.126-.21-1.896 3.067-1.783 7.241.251 9.275 5.058 5.058 21.876-1.91 21.876-9.065m-1792.127-12.27c6.452-7.129 10.273-12.962 8.49-12.962s-8.52 5.833-14.972 12.963-10.273 12.963-8.49 12.963 8.52-5.834 14.972-12.963m43.267-106.174c11.197-20.344-34.453 17.616-63.364 52.69-45.902 55.687-44.6 57.351 6.35 8.115 27.666-26.737 53.322-54.099 57.014-60.805m-188.273 88.35c8.062-10.28 7.832-10.508-2.448-2.446-10.796 8.467-14.23 13.79-8.895 13.79 1.346 0 6.45-5.105 11.343-11.343m673.246-2.002c0-3.355-2.917-6.1-6.481-6.1s-6.482 4.548-6.482 10.106 2.917 8.302 6.482 6.099c3.564-2.204 6.481-6.75 6.481-10.105m-159.8-29.064c-2.111-5.5-5.228-8.611-6.927-6.912-1.7 1.699-1.167 6.2 1.183 10.001 6.391 10.341 10.126 8.332 5.744-3.089m1182.658-34.963c1.62-4.861-.81-7.292-5.672-5.672-4.678 1.56-9.782 6.664-11.342 11.343-1.62 4.861.81 7.292 5.671 5.671 4.679-1.56 9.783-6.663 11.343-11.342m-128.414-6.887c0-3.565-6.006-6.481-13.346-6.481s-11.543 2.916-9.34 6.481c2.204 3.565 8.21 6.482 13.346 6.482 5.137 0 9.34-2.917 9.34-6.482m-350.759-187.963c4.37 0 17.264-9.295 28.657-20.655 11.392-11.36 14.65-15.736 7.24-9.722-7.41 6.013-22.723 10.933-34.028 10.933-15.472 0-20.555 2.885-20.555 11.667 0 6.416-3.645 15.818-8.101 20.893-4.456 5.074-2.04 4.199 5.371-1.945 7.41-6.144 17.048-11.17 21.416-11.17m399.37-93.169c21.388-8.485 50.555-18.445 64.814-22.133 48.794-12.619 207.336-68.79 223.611-79.225 35.415-22.706 75.117-39.357 184.722-77.473 17.824-6.198 32.452-13.888 32.507-17.088.052-3.2 2.377-9.404 5.16-13.787 5.403-8.505-5.356-34.161-14.326-34.161-13.183 0-37.757-34.45-45.897-64.342-8.065-29.617-11.003-33.117-30.938-36.857-50.73-9.517-117.945 14.35-171.886 61.036-23.896 20.683-40.283 28.132-87.592 39.822-32.008 7.909-66.559 18.778-76.779 24.153-10.22 5.376-40.457 18.513-67.193 29.195-67.61 27.012-67.361 26.683-47.29 62.631 20.69 37.06 17.556 65.504-11.209 101.7-35.286 44.401-22.68 52.308 42.296 26.53m-204.167 2.429c0-3.565 4.564-6.482 10.141-6.482 5.578 0 24.256-6.072 41.508-13.493 26.999-11.615 31.963-16.671 35.647-36.31 2.354-12.55 2.728-24.37.83-26.268-8.096-8.096-44.4 15.074-74.8 47.738-35.837 38.504-37.396 41.296-23.048 41.296 5.347 0 9.722-2.916 9.722-6.481M189.49 1598.877c13.115-8.583 21.401-41.652 10.436-41.652-7.25 0-21.359 22.255-21.573 34.027-.14 7.723-5.377 11.343-16.41 11.343-8.912 0-16.203-2.917-16.203-6.482 0-11.476-12.28-6.904-19.95 7.428-7.223 13.494-6.602 13.774 20.836 9.394 15.554-2.482 34.843-8.809 42.864-14.058m575.652-152.519c3.14-5.082.589-5.062-9 .07-7.362 3.94-15.357 10.355-17.768 14.256-3.141 5.082-.59 5.063 9-.07 7.361-3.94 15.357-10.355 17.768-14.256m-295.328-13.046c0-3.565-2.917-4.68-6.482-2.476s-6.481 6.922-6.481 10.487 2.916 4.679 6.481 2.476 6.482-6.923 6.482-10.487m505.555 4.005c0-5.347-2.917-9.722-6.482-9.722s-6.481 4.375-6.481 9.722 2.916 9.722 6.481 9.722 6.482-4.375 6.482-9.722m-55.798-13.464c4.843-12.619 1.608-11.58-12.51 4.021-9.845 10.879-10.114 12.524-1.506 9.221 5.763-2.211 12.07-8.17 14.016-13.242m560.056-36.443c14.36-14.36 6.575-180.185-8.459-180.185-11.875 0-102.13-75.531-111.404-93.23-10.073-19.224-57.466-44.66-73.645-39.526-27.153 8.618-43.195 38.896-48.048 90.688-2.556 27.275-7.029 57.896-9.94 68.046-6.283 21.908-2.25 24.255 50.798 29.566 62.115 6.219 110.118 23.345 141.074 50.33 15.682 13.672 28.513 30.253 28.513 36.847 0 16.433 11.454 45.242 17.988 45.242 2.94 0 8.846-3.5 13.123-7.778m-1035.74-30.116c42.625-31.063 60.596-59 54.051-84.027-2.605-9.962.083-13.646 11.15-15.279 10.187-1.503 17.11-9.479 22.963-26.458 4.61-13.368 7.211-24.305 5.782-24.305-5.904 0-139.316 163.548-139.316 170.786 0 6.47 21.594-3.39 45.37-20.717m1034.223-222.192c10.684-20.659 12.385-61.314 2.814-67.229-3.565-2.203-6.482-9.667-6.482-16.586 0-24.552-22.827-38.506-62.988-38.506-30.805 0-39.285 2.564-50.231 15.188-7.243 8.354-17.545 16.873-22.892 18.933-7.76 2.988-7.433 3.847 1.62 4.256 6.239.281 11.343 3.507 11.343 7.168 0 7.223 25.743 37.06 70.555 81.775 31.053 30.987 37.97 30.373 56.261-4.999M1113.56 2233.96c4.24-26.135 14.585-41.55 27.88-41.55 13.46 0 10.79 28.293-4.504 47.736-18.99 24.142-27.915 21.78-23.376-6.186m-565.97-258.378c0-5.181 15.675-26.26 34.832-46.842 30.246-32.494 36.197-36.288 45.201-28.815 9.236 7.665 7.464 11.034-16.217 30.819-14.623 12.217-32.258 29.423-39.19 38.235-14.127 17.96-24.626 20.774-24.626 6.603m-293.827-33.79c-9.719-9.72-2.661-24.536 29.059-61.006 56.967-65.496 65.736-39.985 10.753 31.283-26.145 33.89-31.584 37.95-39.812 29.723m379.383-48.827c-12.193-12.192-9.461-31.111 4.491-31.111 12.12 0 20.138 11.823 20.138 29.697 0 11.219-14.02 12.024-24.63 1.414m-445.861-40.017c-1.88-4.898 5.756-18.753 16.968-30.787 11.212-12.035 27.988-32.09 37.28-44.566 36.783-49.388 59.761-69.125 59.761-51.33 0 17.586-91.25 135.589-104.849 135.589-3.158 0-7.28-4.008-9.16-8.906m340.86-25.997c0-13.27 30.911-31.26 45.667-26.577 18.359 5.827 15.68 12.272-10.238 24.631-27.826 13.27-35.428 13.687-35.428 1.946m-17.119-26.721c-4.787-12.475 14.346-42.08 27.195-42.08 15.171 0 17.961 16.68 5.876 35.125-12.22 18.648-27.362 21.832-33.071 6.955m2959.71-69.687c0-4.49 5.697-11.722 12.662-16.071 17.09-10.673 25.188 2.512 9.051 14.737-15.04 11.394-21.714 11.804-21.714 1.334M142.821 1706.82c-5.283-8.548 14.552-26.448 29.307-26.448 17.98 0 15.395 16.044-4.009 24.885-19.887 9.061-20.635 9.107-25.298 1.563m236.25-33.224c0-21.336 24.524-51.558 41.836-51.558 14.767 0 12.23 16.377-7.048 45.51-20.64 31.188-34.787 33.648-34.787 6.047m1591.898-5.063c-6.726-10.883 4.26-33.532 16.265-33.532 9.242 0 12.207 4.723 12.207 19.445 0 14.926-2.924 19.444-12.58 19.444-6.92 0-14.071-2.41-15.892-5.357m1467.359-22.452c-16.042-7.723-30.062-14.513-31.155-15.09-1.094-.576 7.593-14.641 19.305-31.257 17.766-25.205 23.835-29.571 36.636-26.359 8.439 2.118 19.666.264 24.95-4.121 8.322-6.908 7.611-9.478-5.315-19.228-14.488-10.929-14.58-11.632-3.136-24.277 6.482-7.162 15.157-12.238 19.278-11.28s5.305.518 2.631-.977c-8.58-4.799-5.353-13.58 18.95-51.572 25.52-39.895 79.616-154.9 79.788-169.627.077-6.58 5.59-7.815 21.064-4.72 25.872 5.175 69.781 33.491 69.781 45.002 0 10.825-22.486 30.209-52.8 45.515-30.901 15.603-73.234 59.035-67.144 68.889 2.692 4.355 11.298 5.933 20.189 3.702 14.182-3.56 15.496-1.92 15.496 19.345 0 23.782-8.198 44.47-23.81 60.082-7.412 7.412-6.229 11.855 7.505 28.177 20.799 24.717 20.512 29.553-3.7 62.476-21.504 29.241-28.337 32.735-34.19 17.481-5.947-15.496-40.124-11.794-59.843 6.481-20.646 19.135-17.708 19.061-54.48 1.358m139.352-56.45c0-6.31-7.683-10.457-21.89-11.815-25.63-2.45-41.767 8.826-26.667 18.635 14.57 9.464 48.557 4.69 48.557-6.82m-35.649-84.26c11.848-7.656 1.615-7.656-16.203 0-8.548 3.674-9.652 5.693-3.24 5.927 5.346.196 14.096-2.47 19.444-5.926M487.097 1611.238c-8.767-8.767-3.947-21.605 8.112-21.605 19.318 0 32.938 6.987 32.938 16.897 0 9.27-32.733 13.024-41.05 4.708M3623.073 1194.3c-2.19-3.545-.568-29.795 3.604-58.334 7.094-48.511 8.61-51.888 23.304-51.888 8.644 0 27.15 5.833 41.125 12.963s32.963 12.963 42.194 12.963c28.414 0 55.029 17.607 55.029 36.405 0 16.4-.588 16.597-43.008 14.416-39.317-2.02-43.457-.995-48.245 11.95-2.881 7.787-11.045 17.266-18.14 21.064-16.258 8.7-50.595 8.984-55.863.46m142.57-95.468c-15.305-3.762-29.166-14.123-29.166-21.801 0-9.84 22.46-17.744 40.578-14.28 14.463 2.764 17.755 6.86 17.755 22.083 0 18.718-3.375 20.338-29.167 13.998M1892.811 70.011c-6.958-8.424-30.996-25.06-53.418-36.968s-40.792-24.215-40.822-27.349c-.092-9.576 91.209 2.638 119.647 16.005 14.668 6.895 31.47 20.663 37.338 30.596 10.09 17.08 9.992 18.482-1.802 25.847-19.898 12.426-46.948 8.818-60.943-8.13" style="fill:#fff;fill-opacity:1;stroke-width:6.48147"/><text xml:space="preserve" x="74.69" y="2574.218" style="font-style:normal;font-weight:400;font-size:554.315px;line-height:1.25;font-family:sans-serif;fill:#fff;fill-opacity:1;stroke:none;stroke-width:2.88706" transform="scale(.93518 1.06931)"><tspan x="74.69" y="2574.218" style="font-style:normal;font-variant:normal;font-weight:400;font-stretch:normal;font-size:554.315px;font-family:&quot;Fugaz One&quot;;-inkscape-font-specification:&quot;Fugaz One&quot;;fill:#fff;fill-opacity:1;stroke-width:2.88706">EXTREMEBIKE</tspan></text></svg>