<?xml version="1.0" encoding="UTF-8" standalone="no"?>
<!-- Created with Inkscape (http://www.inkscape.org/) -->

<svg
   width="3840"
   height="2274.998"
   viewBox="0 0 3840 2274.998"
   version="1.1"
   id="svg5"
   inkscape:version="1.1.1 (3bf5ae0d25, 2021-09-20)"
   sodipodi:docname="LOGO VECTORIZADO.svg"
   xmlns:inkscape="http://www.inkscape.org/namespaces/inkscape"
   xmlns:sodipodi="http://sodipodi.sourceforge.net/DTD/sodipodi-0.dtd"
   xmlns="http://www.w3.org/2000/svg"
   xmlns:svg="http://www.w3.org/2000/svg">
  <sodipodi:namedview
     id="namedview7"
     pagecolor="#ffffff"
     bordercolor="#666666"
     borderopacity="1.0"
     inkscape:pageshadow="2"
     inkscape:pageopacity="0.0"
     inkscape:pagecheckerboard="0"
     inkscape:document-units="px"
     showgrid="false"
     inkscape:zoom="0.33287037"
     inkscape:cx="1631.2656"
     inkscape:cy="2362.7816"
     inkscape:window-width="3759"
     inkscape:window-height="2133"
     inkscape:window-x="72"
     inkscape:window-y="-9"
     inkscape:window-maximized="1"
     inkscape:current-layer="layer1" />
  <defs
     id="defs2" />
  <g
     inkscape:label="Capa 1"
     inkscape:groupmode="layer"
     id="layer1">
    <path
       style="fill:#ff3300;fill-opacity:1;stroke-width:6.48147"
       d="m 2338.7007,2266.9461 c -1.6705,-5.3473 -4.4041,-14.0972 -6.0747,-19.4445 -1.6704,-5.3472 -9.7715,-9.7222 -18.0022,-9.7222 -8.2307,0 -21.693,-4.7125 -29.9162,-10.4723 -10.6836,-7.483 -16.9447,-8.479 -21.9344,-3.4892 -4.9897,4.9897 -13.2238,1.5035 -28.846,-12.2129 -25.2721,-22.1892 -32.8341,-23.5088 -45.0028,-7.8533 -8.3966,10.8025 -9.2362,10.8025 -17.6328,0 -4.849,-6.2384 -11.3587,-11.3426 -14.466,-11.3426 -3.1074,0 -20.4605,16.0417 -38.5626,35.6481 -49.8842,54.0298 -67.5522,46.6979 -39.8696,-16.5451 10.9486,-25.0129 5.7591,-42.9075 -10.6206,-36.622 -5.467,2.0978 -20.3084,20.0228 -32.981,39.8333 -17.4203,27.2322 -26.8206,36.019 -38.5338,36.019 -16.7062,0 -62.4461,-17.1693 -62.4461,-23.4402 0,-2.102 13.125,-18.42 29.1667,-36.2621 43.6235,-48.5198 40.1613,-51.6827 -36.3564,-33.2141 -24.581,5.9328 -46.6336,8.8461 -49.0058,6.4739 -2.3723,-2.3723 -5.6603,-20.557 -7.3067,-40.4106 l -2.9935,-36.0974 -21.4174,20.7586 c -12.8575,12.4619 -25.3382,19.2541 -31.2272,16.9943 -10.7898,-4.1404 -26.357,-52.8214 -20.1189,-62.9147 2.1523,-3.4826 0.733,-6.332 -3.1541,-6.332 -3.8871,0 -8.7462,4.375 -10.7982,9.7222 -2.0519,5.3473 -9.252,9.7223 -16.0003,9.7223 -8.9797,0 -12.2694,-4.6476 -12.2694,-17.3335 v -17.3336 l -15.6124,14.6672 c -11.8683,11.1497 -21.5831,14.1407 -40.5092,12.4723 -23.2558,-2.05 -25.1105,-0.9129 -28.1376,17.2498 -4.4943,26.9657 -99.4882,126.3887 -120.7583,126.3887 -10.2221,0 -15.4216,-3.7905 -15.5588,-11.3426 -0.1964,-10.8024 -0.6164,-10.8024 -8.8164,0 -4.7357,6.2385 -11.7262,11.3426 -15.5346,11.3426 -3.8084,0 -11.6951,4.7708 -17.5262,10.6018 -18.775,18.7751 -23.9871,0.9135 -8.8661,-30.3834 13.5435,-28.0318 20.2061,-77.4553 10.4402,-77.4454 -2.6736,0 -4.8611,-4.2047 -4.8611,-9.3498 0,-12.2415 25.0471,-29.5341 42.7781,-29.5341 7.6824,0 17.5988,-4.375 22.0366,-9.7223 12.4758,-15.0323 -18.0881,-12.6813 -42.1296,3.2408 -26.8868,17.8065 -37.3876,16.2591 -51.4725,-7.5848 -22.0809,-37.3801 -54.4544,-63.7114 -78.3309,-63.7114 -11.9604,0 -23.5488,-2.9167 -25.752,-6.4815 -2.2031,-3.5648 -11.8544,-6.4839 -21.4473,-6.4868 -9.5928,0 -39.0378,-4.5107 -65.4333,-10.0174 -30.0516,-6.2694 -50.276,-7.7279 -54.1022,-3.9017 -3.3607,3.3607 -10.2491,46.5144 -15.3075,95.897 -7.8453,76.5888 -11.1927,91.4537 -22.7732,101.1291 -15.7273,13.1399 -32.238,14.5778 -43.0652,3.7507 -5.8015,-5.8015 -10.9804,-3.284 -21.9609,10.6753 -15.74,20.0103 -49.2941,51.6632 -70.5442,66.5474 -12.2452,8.5769 -13.8519,8.3086 -16.7563,-2.7977 -2.5291,-9.6712 -7.813,-11.7471 -24.84029,-9.7593 -19.95427,2.3296 -21.99307,0.8619 -26.34837,-18.9674 -3.748,-17.0646 -2.3308,-22.8699 6.8791,-28.179 24.77356,-14.2809 35.42226,-29.8154 35.42226,-51.6745 0,-31.3063 -8.669,-33.1618 -29.19616,-6.249 -17.9682,23.5574 -51.7032,47.9279 -66.4055,47.9718 -23.3441,0.07 9.3051,-59.156 37.5531,-68.1216 6.9731,-2.2132 12.6018,-8.9315 12.5084,-14.9297 -0.2016,-12.9522 -24.4697,-66.1307 -25.2313,-55.2899 -1.4085,20.0474 -84.6186,28.8507 -107.469,11.3698 -12.8094,-9.7993 -12.8139,-10.0273 -0.3818,-19.2383 6.9198,-5.1268 15.4267,-9.3214 18.9043,-9.3214 3.4776,0 4.5804,-1.7425 2.4507,-3.8723 -2.1298,-2.1297 -13.2397,1.5161 -24.6887,8.1019 -15.5419,8.9399 -21.5406,9.9212 -23.6741,3.8722 -3.1166,-8.8369 -21.2215,-11.3252 -21.2215,-2.9167 0,2.8519 3.4514,8.6366 7.6697,12.8549 11.9354,11.9354 1.1806,16.9219 -22.0976,10.2458 -30.3637,-8.7082 -30.1799,-24.513 0.5101,-43.8869 52.9765,-33.4427 34.3402,-35.4034 -23.2269,-2.4438 -19.4056,11.1106 -25.4033,17.7194 -20.516,22.6066 3.7984,3.7984 5.93,13.805 4.7369,22.2369 -1.6468,11.6397 -6.8507,15.8286 -21.6135,17.3978 -10.6944,1.1367 -30.1765,10.5882 -43.2934,21.0033 -21.0911,16.7468 -27.2747,18.467 -53.4722,14.8763 -30.6553,-4.2018 -38.7197,-16.5351 -21.8454,-33.4094 6.0494,-6.0494 5.3293,-7.7778 -3.2407,-7.7778 -16.0096,0 -13.4978,-17.5544 5.1852,-36.2373 18.575,-18.575 20.2751,-23.2515 6.5361,-17.9793 -12.8743,4.9403 -19.9223,-14.5773 -9.7083,-26.8843 9.7406,-11.7369 30.0474,-12.6413 34.5277,-1.5379 1.7981,4.456 3.4995,0.606 3.7809,-8.5555 0.2814,-9.1616 10.72,-28.5836 23.1969,-43.16 13.7403,-16.0525 22.6851,-33.3799 22.6851,-43.9443 0,-16.1689 15.6621,-34.8635 59.9537,-71.5623 15.0477,-12.4681 13.5496,-12.8592 55.6145,14.5156 44.0837,28.6887 77.5298,62.616 89.4027,90.6893 8.8403,20.9028 20.0079,32.0229 26.0708,25.9599 1.8301,-1.8301 9.1012,-25.8655 16.158,-53.4121 7.0567,-27.5464 19.9486,-60.5598 28.6486,-73.3629 28.7571,-42.32 17.8067,-65.3726 -46.5576,-98.0127 -24.8073,-12.5802 -47.9553,-19.3432 -66.3894,-19.3967 -25.3558,-0.073 -27.9392,-1.4701 -24.8155,-13.4151 2.2226,-8.4995 0.7344,-12.3931 -4.1052,-10.7402 -4.1755,1.4262 -6.7472,8.484 -5.7148,15.6841 1.4751,10.2879 -2.6887,13.8862 -19.4444,16.8037 -11.7268,2.0419 -30.8006,5.7235 -42.3863,8.1814 -19.143,4.0611 -21.0438,3.0645 -20.835,-10.9247 0.1263,-8.4664 4.3979,-22.6852 9.4925,-31.5972 5.0945,-8.912 9.3662,-22.8334 9.4925,-30.9364 0.2242,-14.3828 -0.1705,-14.4704 -16.6286,-3.6868 -12.3382,8.0844 -19.6831,9.264 -27.3942,4.4001 -8.2292,-5.1909 -17.4372,-1.1908 -42.057,18.27 -34.0006,26.876 -35.652,27.5228 -48.8739,19.145 -9.9628,-6.3129 -4.3952,-46.0807 6.4517,-46.0807 3.492,0 4.5464,-2.9167 2.3432,-6.4815 -2.2031,-3.5648 -0.7448,-6.4815 3.2408,-6.4815 3.9856,0 5.4439,-2.9167 3.2407,-6.4815 -2.2032,-3.5648 -1.2272,-6.4814 2.1688,-6.4814 8.4724,0 65.9802,-85.1607 65.6527,-97.2222 -0.1472,-5.4154 -12.7951,4.4995 -28.5513,22.3816 -23.1055,26.2229 -29.9961,30.6855 -37.6158,24.3617 -5.1307,-4.258 -11.0537,-6.0169 -13.1621,-3.9084 -2.1084,2.1084 -6.997,1.8784 -10.8636,-0.5114 -4.6413,-2.8685 -2.2176,-11.1032 7.1333,-24.2354 23.1554,-32.5187 0.8861,-17.5087 -25.3834,17.1091 -13.3064,17.5349 -27.8392,33.0736 -32.2952,34.5304 -12.9854,4.2454 -9.3813,-16.1683 7.4717,-42.3204 8.5654,-13.2916 17.4547,-31.4582 19.7539,-40.3702 3.4987,-13.5614 3.0204,-14.354 -2.9326,-4.8611 -3.9122,6.2384 -14.989,11.3579 -24.615,11.3766 -9.6261,0.02 -25.1321,5.123 -34.4577,11.3426 -49.1221,32.7617 -123.9318,93.2811 -160.276,129.6598 -24.0543,24.0772 -45.5745,40.3159 -51.8518,39.1265 -16.1282,-3.0559 -16.8067,-34.6915 -1.5068,-70.2571 7.4035,-17.2096 13.4609,-37.3122 13.4609,-44.6722 0,-14.8272 18.332,-18.383 30.7504,-5.9645 5.4296,5.4295 12.2902,5.5381 25.6019,0.4051 10.0015,-3.8566 27.487,-8.8456 38.8565,-11.0867 15.4867,-3.0525 40.2796,-24.4771 98.8425,-85.4139 42.9938,-44.7365 78.1706,-82.7696 78.1706,-84.518 0,-1.7483 7.4453,-9.0351 16.545,-16.193 9.0998,-7.1578 15.0571,-14.5022 13.2386,-16.3208 -1.8186,-1.8185 3.132,-8.5265 11.0012,-14.9068 7.8693,-6.3802 12.311,-13.6051 9.8706,-16.0554 -2.4404,-2.4502 -19.1453,9.3028 -37.1218,26.1178 -34.0557,31.8551 -50.485,34.6413 -57.0154,9.6689 -1.8493,-7.0715 -5.9474,-11.2597 -9.1069,-9.307 -7.9218,4.896 -7.2715,41.6742 0.7369,41.6742 3.5648,0 6.4815,4.5072 6.4815,10.0159 0,7.8466 -4.6925,9.1356 -21.6653,5.9515 -21.0723,-3.9532 -22.1509,-3.0718 -39.4102,32.205 -22.1455,45.2637 -60.5557,87.9172 -68.1319,75.6587 -3.8468,-6.2242 -9.9765,-2.2708 -23.0451,14.863 -9.7925,12.8385 -21.9248,23.3428 -26.9608,23.3428 -15.1872,0 -18.1626,-20.3872 -6.0715,-41.6008 l 11.3842,-19.9732 -19.1279,18.2068 c -10.5203,10.0138 -27.157,34.0763 -36.9705,53.4722 -9.8134,19.3959 -22.599,35.6972 -28.4124,36.225 -5.8134,0.5275 -16.4032,1.2569 -23.5328,1.6203 -8.0675,0.411 -13.7149,5.9379 -14.9542,14.6345 -1.2123,8.507 -8.1853,15.5284 -17.8241,17.9476 -8.708,2.1855 -15.8327,8.2932 -15.8327,13.5724 0,12.3848 -9.4965,12.1689 -29.0774,-0.6609 -15.6841,-10.2767 -42.2189,-7.6275 -42.2189,4.215 0,3.3245 -9.7154,6.0447 -21.5899,6.0447 -24.8117,0 -41.079397,21.4979 -33.747697,44.598 3.1259,9.8488 1.5931,13.7353 -5.4171,13.7353 -5.377,0 -11.5791,-2.9167 -13.7822,-6.4815 -2.2032,-3.5648 -9.667,-6.4815 -16.5862,-6.4815 -15.034,0 -16.2172,-18.1016 -3.3891,-51.8518 4.7423,-12.4768 17.0101,-45.9109 27.2618,-74.298 15.4693,-42.8347 24.535497,-57.1652 53.307097,-84.2592 51.9526,-48.9232 84.1573,-97.8996 153.4331,-233.3378 34.5544,-67.5561 69.472,-131.7037 77.5945,-142.5502 8.1225,-10.8465 20.6585,-31.3876 27.8577,-45.6468 14.3467,-28.4158 50.3979,-66.0465 85.3399,-89.07869 12.3265,-8.1251 32.0398,-27.8645 43.8072,-43.8655 41.6356,-56.6146 67.6537,-84.086 134.6293,-142.1488 62.7072,-54.3626 169.5904,-131.24984 196.1274,-141.08584 16.1176,-5.974 60.3789,-34.969 78.8722,-51.668 24.1784,-21.83267 219.53616,-118.73917 239.14576,-118.62747 23.3727,0.1335 27.4063,3.8324 49.3645,45.2711 10.3894,19.6065 25.518,44.4616 33.6194,55.2337 17.2191,22.89597 30.2738,74.43667 24.59,97.08287 -2.6219,10.4466 0.8178,23.54144 10.1502,38.64144 l 14.1159,22.8402 69.6022,-1.5752 c 57.7577,-1.307 71.4483,0.2651 80.4511,9.238 21.2796,21.2089 73.6074,22.9406 56.1094,1.8568 -4.0448,-4.8736 -5.7812,-11.4065 -3.8585,-14.5174 1.9227,-3.111 -4.7049,-15.6346 -14.7279,-27.8302 -10.023,-12.1957 -24.3573,-34.23284 -31.854,-48.97134 -7.4967,-14.7386 -22.5461,-35.7131 -33.4431,-46.6101 -22.4091,-22.4092 -95.1899,-61.37127 -134.3265,-71.90967 l -26.0546,-7.0158 -4.415,-43.0937 c -4.1835,-40.8333 -3.4992,-44.0498 13.0455,-61.3187 11.6084,-12.1166 29.5266,-20.9252 53.4608,-26.2814 58.0866,-12.9992 67.3591,-29.9 38.9399,-70.9749 -10.4162,-15.0547 -11.3133,-26.7311 -7.9677,-103.7036 4.5646,-105.0169 15.2912,-147.334801 48.683,-192.062701 l 25.4036,-34.0278003 h 128.3791 128.3792 l 6.9553,15.2653003 c 11.596,25.4503 74.859,56.3652 133.9785,65.4716 44.6762,6.881599 58.752,12.423699 96.0195,37.806001 36.2092,24.6615 47.2943,29.154 64.89,26.2986 23.942,-3.8852 39.1954,8.5414 46.0658,37.529 3.6986,15.6051 0.9537,18.6083 -31.5369,34.5044 -19.5734,9.5764 -35.5881,19.9173 -35.5881,22.9797 0,3.0624 -5.8333,7.4194 -12.9629,9.6822 -7.1296,2.2629 -12.963,8.2928 -12.963,13.3998 0,5.1069 -4.1319,9.2854 -9.1821,9.2854 -19.447,0 -13.3646,16.7156 11.9187,32.7549 58.5107,37.1183 63.8331,59.3526 23.1893,96.8746 -14.2592,13.1641 -25.9259,28.6204 -25.9259,34.3475 0,14.1998 13.7872,43.4302 20.4849,43.4302 2.9925,0 5.441,5.8333 5.441,12.9629 0,7.1297 -2.9166,12.963 -6.4814,12.963 -3.5648,0 -5.8329,2.1875 -5.0402,4.8611 1.4164,4.7768 -8.1269,21.4409 -38.0467,66.4351 -8.2966,12.47687 -38.0219,45.28927 -66.0561,72.91657 -45.3397,44.68174 -53.6594,50.23154 -75.3024,50.23154 -16.4972,0 -30.5316,-5.2172 -43.5883,-16.20374 -10.5913,-8.912 -24.4041,-16.2037 -30.6951,-16.2037 -9.8707,0 -10.8387,3.9494 -7.0641,28.82174 2.4058,15.8519 7.9458,33.1253 12.3111,38.3853 4.582,5.5209 7.0934,22.7905 5.941,40.8542 l -1.996,31.2905 -25.7612,-0.8684 c -31.3764,-1.0576 -39.0655,7.6826 -49.2308,55.9609 -4.1282,19.6065 -11.7842,43.9808 -17.0132,54.1652 -7.5829,14.769 -8.1878,25.9203 -2.9883,55.0925 5.6168,31.51389 5.0175,37.73469 -4.3304,44.95209 -5.9672,4.6071 -18.1416,7.5238 -27.0542,6.4815 -14.172,-1.6574 -17.7285,-7.5866 -28.3515,-47.26539 -6.6807,-24.9537 -14.5204,-51.2037 -17.4215,-58.3333 -2.9011,-7.1296 -7.1179,-19.5412 -9.3707,-27.5813 -9.1618,-32.6978 -56.749,-72.8816 -86.3092,-72.8816 -9.4341,0 -13.422,6.039 -16.4365,24.8903 -2.1891,13.6897 -11.0679,35.3347 -19.7307,48.1001 -22.9411,33.8055 -23.8497,58.9778 -2.7287,75.5916 9.4078,7.4002 26.4159,13.4549 37.7958,13.4549 23.0268,0 64.7646,35.48629 64.7646,55.06419 0,6.0446 6.1736,19.6601 13.719,30.2568 12.4104,17.4287 16.12,18.8609 38.8889,15.0141 38.2734,-6.4662 35.7875,5.4607 -13.8167,66.2893 -10.6353,13.0418 -7.2388,25.1718 9.5667,34.1658 22.6836,12.1399 26.8938,50.4415 13.9597,126.9978 -5.7562,34.0704 -10.4658,64.5711 -10.4658,67.7793 0,3.2082 -9.0521,16.1429 -20.1158,28.7437 -11.0638,12.6009 -17.9983,22.9108 -15.4101,22.9108 2.5882,0 1.0749,4.375 -3.3629,9.7222 -4.4378,5.3472 -6.1861,9.7222 -3.885,9.7222 2.3011,0 0.089,6.5625 -4.9167,14.5833 -5.0054,8.0208 -10.9617,22.6051 -13.2364,32.4096 -4.8781,21.0252 7.1039,103.3384 15.8272,108.7297 3.3205,2.0522 7.0771,13.2299 8.348,24.8393 2.5868,23.629 10.6245,33.2445 42.3377,50.6488 14.6717,8.0519 29.2102,25.7021 44.5053,54.031 31.0417,57.4936 47.1309,67.7018 47.1309,29.9034 0,-12.2427 4.6125,-25.7196 10.4651,-30.5767 8.9242,-7.4066 12.0256,-6.762 21.0648,4.3783 5.8298,7.185 20.0788,18.6568 31.6644,25.4928 11.5857,6.8361 21.0648,14.8717 21.0648,17.857 0,2.9854 -7.2916,16.1585 -16.2037,29.2738 -19.829,29.181 -21.5199,62.9058 -3.6341,72.478 7.0101,3.7517 14.1282,4.2053 16.0933,1.0256 5.5892,-9.0435 67.1524,-30.7032 123.6518,-43.5041 52.4151,-11.8756 90.7424,-31.08 83.9529,-42.0658 -2.0348,-3.2922 -0.6107,-5.9858 3.1645,-5.9858 3.8006,0 6.864,-12.8463 6.864,-28.7841 0,-15.8313 2.955,-30.6104 6.5665,-32.8425 8.0586,-4.9804 73.0446,26.0849 85.8622,41.0448 5.1175,5.9727 11.1147,15.9637 13.3271,22.2021 4.0659,11.4653 36.8366,16.5894 36.8366,5.7599 0,-3.0705 -7.2916,-4.1888 -16.2036,-2.4851 -11.7077,2.238 -16.2037,0.2793 -16.2037,-7.0582 0,-5.5857 3.8658,-12.4882 8.5906,-15.3389 15.6032,-9.4142 17.0976,-27.3402 7.5702,-90.8075 -18.1984,-121.2292 4.5891,-167.3772 91.956,-186.2241 31.1203,-6.7133 31.5321,-7.6396 57.805,-130.003 10.4637,-48.7335 48.4058,-148.4815 73.6671,-193.6675 55.9093,-100.0071 77.705,-135.3164 102.4507,-165.9712 15.7902,-19.56056 34.0303,-45.81059 40.5336,-58.33329 6.5034,-12.5226 34.6473,-44.8965 62.542,-71.942 38.9997,-37.8125 70.9337,-60.525 138.2175,-98.305 118.5323,-66.556 239.6955,-124.07364 305.3526,-144.95464 29.9031,-9.51 57.8414,-20.0034 62.0851,-23.3186 9.4542,-7.3857 77.2954,-19.9021 208.1684,-38.40607 94.4816,-13.3587 101.4427,-13.528 145.8331,-3.5472 25.6386,5.7646 68.4906,13.8907 95.2266,18.058 74.247,11.57277 169.7086,65.22837 223.5337,125.64031 22.2908,25.0187 42.5612,52.051 45.0452,60.0718 2.4842,8.0209 7.2367,14.5833 10.5613,14.5833 3.3246,0 6.0447,5.8334 6.0447,12.963 0,11.6729 -4.354,12.9728 -43.7499,13.0622 -47.5071,0.1076 -72.844,8.5826 -50.0498,16.7409 7.0297,2.5161 17.1563,7.9687 22.5035,12.1169 5.3472,4.1482 30.8781,15.6333 56.7354,25.5223 50.4184,19.2824 49.0242,17.3854 56.8132,77.3006 l 4.0712,31.317 -28.0229,-1.7113 c -36.9786,-2.2583 -45.6691,-5.6851 -41.5618,-16.3888 3.7901,-9.8767 1.4425,-10.4901 -44.8036,-11.706 l -32.4166,-0.8523 13.3901,14.4481 c 8.5923,9.2712 30.0777,18.2437 59.9629,25.0409 30.9348,7.03603 46.5728,13.68283 46.5728,19.79539 0,5.0616 -6.5625,9.5086 -14.5834,9.8824 -10.2129,0.4757 -6.9896,3.0298 10.7556,8.5221 15.6682,4.8493 27.3385,13.2478 30.5782,22.0055 6.7078,18.1332 -2.6206,18.3755 -46.1949,1.2001 -18.6007,-7.3317 -46.1572,-12.5795 -63.4343,-12.0803 -16.8009,0.4855 -23.9846,2.1467 -15.9637,3.6916 15.8074,3.0446 17.4231,6.833 8.7522,20.5213 -4.2317,6.6804 -10.2521,7.3573 -24.2063,2.7217 -16.953,-5.6318 -18.9147,-9.5182 -22.4816,-44.54 -4.8891,-48.00209 -27.14,-123.29329 -51.9113,-175.65369 -33.6494,-71.1266 -104.8846,-118.9448 -216.4027,-145.2649 -209.2935,-49.39684 -499.288,66.1178 -713.628,284.262 -54.3318,55.29599 -112.7601,140.97139 -112.7601,165.34399 0,6.4749 -6.8209,18.5936 -15.1575,26.9302 -33.0911,33.0911 -70.8776,125.6579 -101.3881,248.3733 -5.0133,20.164 -4.4252,21.0648 13.7526,21.0648 10.4445,0 25.4498,-3.9814 33.3452,-8.8475 7.8954,-4.8661 28.9386,-12.4076 46.7627,-16.7588 17.824,-4.3511 52.824,-17.5497 77.7777,-29.3302 24.9537,-11.7804 75.7614,-31.2181 112.9061,-43.1949 37.1446,-11.9767 77.3484,-29.5571 89.3417,-39.0676 11.9932,-9.5105 32.7663,-19.1436 46.1623,-21.4068 17.055,-2.8814 29.637,-10.7329 41.9715,-26.1913 l 17.6151,-22.0763 -25.9892,-6.9982 c -34.0875,-9.1788 -35.3238,-25.5251 -1.6837,-22.2639 13.368,1.296 46.1805,4.2104 72.9166,6.4764 26.736,2.2661 51.1361,6.4956 54.2222,9.3991 3.1105,2.9263 0.944,11.9422 -4.8611,20.2303 -15.4455,22.0516 -13.9147,50.9558 2.6988,50.9558 35.945,0 106.7938,44.054 131.2743,81.6267 29.7287,45.6276 25.9036,54.6018 -39.1214,91.782 -119.0523,68.0721 -174.8061,93.4421 -276.1381,125.6531 -57.5567,18.2959 -107.5652,35.3907 -111.1301,37.9884 -3.5648,2.5977 -26.8981,12.7683 -51.8518,22.6013 -52.0115,20.495 -179.1399,86.6354 -186.2431,96.8957 -10.5412,15.2263 -4.9085,49.6452 10.4551,63.8857 39.5939,36.6999 177.8603,112.1865 227.2325,124.0576 34.8835,8.3875 47.8717,23.1014 20.3919,23.1014 -9.2091,0 -16.7438,2.9167 -16.7438,6.4815 0,8.8812 13.9153,8.1285 46.7641,-2.5297 43.9336,-14.2547 58.0614,-16.6145 138.933,-23.2061 75.3524,-6.1417 77.0141,-6.6321 156.1234,-46.0742 123.5082,-61.5784 233.171,-139.3181 317.0569,-224.7609 24.1112,-24.5586 28.9259,-26.8904 43.8267,-21.2252 14.4737,5.5029 16.7396,10.1982 16.7396,34.6869 0,20.0911 -3.7674,31.732 -12.963,40.0539 -15.259,13.8092 -17.0396,23.8427 -3.2953,18.5685 22.0816,-8.4736 17.9695,22.0572 -8.8478,65.6906 -9.6189,15.6507 -16.04,19.2453 -32.9102,18.4236 -18.2481,-0.8888 -20.5031,0.7252 -17.4303,12.4755 4.1695,15.9443 4.0811,16.0214 -89.831,78.3543 -128.6562,85.3938 -216.1297,124.5553 -351.7625,157.4827 -65.2883,15.85 -76.0625,16.643 -176.4777,12.9892 -76.9287,-2.7991 -119.0675,-7.4085 -150.1385,-16.4234 -50.0522,-14.522 -167.4538,-64.8095 -167.4538,-71.7267 0,-2.5842 -15.6314,-15.4642 -34.7365,-28.6224 -23.0287,-15.8604 -38.6737,-32.6549 -46.4176,-49.8277 -13.6347,-30.2366 -31.6059,-37.2709 -67.6386,-26.4752 -37.975,11.3777 -57.1194,9.2729 -65.9632,-7.2518 -4.2926,-8.0208 -6.5827,-15.9298 -5.0891,-17.5755 1.4936,-1.6458 -5.3785,-7.4791 -15.2711,-12.963 -20.5276,-11.3792 -27.6565,-5.7953 -34.8511,27.2978 -2.2927,10.5457 -8.1759,17.822 -14.4075,17.8189 -10.9073,-0.01 -72.0434,-28.9293 -110.0412,-52.0614 -16.8694,-10.2696 -23.7572,-11.548 -30.7871,-5.7137 -9.798,8.1316 -12.3645,25.3729 -3.777,25.3729 2.9033,0 26.022,17.4606 51.3748,38.8013 26.6274,22.4137 61.0644,44.4017 81.5368,52.0615 19.4924,7.293 45.6404,22.6449 58.1065,34.1152 12.4662,11.4704 36.0612,31.0635 52.4333,43.5403 21.8397,16.6435 31.6118,29.5899 36.692,48.6111 20.4556,76.5888 20.5444,76.737 51.2395,85.5825 15.8354,4.5634 31.5233,11.0286 34.8619,14.3673 7.8535,7.8534 10.8423,91.2537 3.2702,91.2537 -3.1661,0 -7.1234,-4.375 -8.7939,-9.7222 z m -79.9866,-105.3965 c -3.3601,-6.2783 -12.8916,-17.2158 -21.1811,-24.3056 -15.0544,-12.8753 -15.0611,-12.8752 -5.7506,0.073 23.7768,33.0657 38.9798,46.7453 26.9317,24.233 z M 1158.508,2143.4614 c 2.2134,-5.768 1.1268,-8.3697 -2.5473,-6.0989 -3.5239,2.1779 -6.4072,6.7044 -6.4072,10.0588 0,9.3232 4.6457,7.2687 8.9545,-3.9599 z m 943.8223,-37.7425 c 20.9638,-9.5902 24.7115,-33.1829 6.7942,-42.7719 -7.5558,-4.0438 -35.3872,-6.3634 -63.5877,-5.2997 -49.0957,1.8518 -50.1933,2.2591 -52.1672,19.3577 -1.6762,14.52 2.1501,19.6627 22.6852,30.4893 25.8502,13.6289 53.862,13.0525 86.2755,-1.7754 z m 751.8511,-82.5216 c 0,-7.4058 -17.5762,-7.5731 -22.1265,-0.2106 -1.8958,3.0676 -1.7828,7.2416 0.2509,9.2756 5.0583,5.0581 21.8756,-1.911 21.8756,-9.065 z m -1792.1278,-12.2695 c 6.4522,-7.1296 10.273,-12.9629 8.4906,-12.9629 -1.7824,0 -8.5199,5.8333 -14.9721,12.9629 -6.4522,7.1296 -10.273,12.963 -8.4906,12.963 1.7824,0 8.5198,-5.8334 14.9721,-12.963 z m 43.2669,-106.1752 c 11.197,-20.3436 -34.4524,17.6164 -63.3634,52.6902 -45.90239,55.6871 -44.59999,57.3515 6.3497,8.1147 27.6662,-26.7361 53.3223,-54.0983 57.0137,-60.8049 z m -188.27326,88.3511 c 8.0621,-10.28 7.8329,-10.5092 -2.4472,-2.4471 -10.7965,8.4672 -14.2299,13.7897 -8.8954,13.7897 1.3459,0 6.4501,-5.1041 11.3426,-11.3426 z m 673.24656,-2.0029 c 0,-3.3544 -2.9167,-6.0989 -6.4815,-6.0989 -3.5648,0 -6.4815,4.5471 -6.4815,10.1048 0,5.5576 2.9167,8.3021 6.4815,6.0989 3.5648,-2.2032 6.4815,-6.7503 6.4815,-10.1048 z m -159.8003,-29.0636 c -2.1109,-5.501 -5.2281,-8.6117 -6.927,-6.9127 -1.699,1.699 -1.1666,6.1998 1.1832,10.0018 6.391,10.3409 10.1265,8.332 5.7438,-3.0891 z m 1182.658,-34.9635 c 1.6204,-4.8611 -0.8102,-7.2916 -5.6713,-5.6713 -4.6788,1.5597 -9.7829,6.6638 -11.3425,11.3426 -1.6204,4.8611 0.8101,7.2917 5.6713,5.6713 4.6787,-1.5596 9.7829,-6.6638 11.3425,-11.3426 z m -128.4142,-6.8865 c 0,-3.5649 -6.0055,-6.4815 -13.3455,-6.4815 -7.34,0 -11.5428,2.9166 -9.3397,6.4815 2.2032,3.5648 8.2087,6.4814 13.3455,6.4814 5.1369,0 9.3397,-2.9166 9.3397,-6.4814 z m -350.7582,-187.9628 c 4.3688,0 17.264,-9.295 28.6563,-20.6557 11.3924,-11.3606 14.6504,-15.7356 7.24,-9.7222 -7.4103,6.0134 -22.7228,10.9335 -34.0277,10.9335 -15.4722,0 -20.5545,2.8847 -20.5545,11.6666 0,6.4167 -3.6458,15.8184 -8.1018,20.8929 -4.456,5.0743 -2.0389,4.1993 5.3715,-1.9445 7.4103,-6.1438 17.0476,-11.1706 21.4162,-11.1706 z m 399.3693,-93.169 c 21.3888,-8.4856 50.5555,-18.4456 64.8147,-22.1333 48.7935,-12.6188 207.3356,-68.7901 223.6109,-79.2251 35.4147,-22.7064 75.1167,-39.3575 184.722,-77.473 17.8241,-6.1984 32.4521,-13.8881 32.5066,-17.0882 0.052,-3.2002 2.377,-9.4041 5.1609,-13.7864 5.4027,-8.505 -5.357,-34.1617 -14.3265,-34.1617 -13.1836,0 -37.7572,-34.4488 -45.8972,-64.3414 -8.0652,-29.6178 -11.0026,-33.1173 -30.9378,-36.8572 -50.7303,-9.5171 -117.9452,14.3506 -171.8858,61.0359 -23.8967,20.6825 -40.2831,28.1322 -87.5926,39.822 -32.0081,7.9088 -66.5585,18.7778 -76.7785,24.1532 -10.2201,5.3754 -40.457,18.5131 -67.193,29.1949 -67.6101,27.012 -67.3617,26.6832 -47.2913,62.6311 20.6915,37.0603 17.557,65.5037 -11.2076,101.6993 -35.2861,44.4017 -22.6812,52.3082 42.2952,26.5299 z m -204.1665,2.4283 c 0,-3.5648 4.5635,-6.4814 10.1411,-6.4814 5.5775,0 24.256,-6.0721 41.5078,-13.4937 26.9989,-11.6146 31.9628,-16.6709 35.6472,-36.3104 2.3542,-12.5492 2.7276,-24.3697 0.8296,-26.2677 -8.0954,-8.0952 -44.3996,15.0744 -74.8007,47.7384 -35.8361,38.5036 -37.3947,41.2963 -23.0472,41.2963 5.3472,0 9.7222,-2.9167 9.7222,-6.4815 z M 182.19344,1598.8772 c 13.1155,-8.5835 21.4016,-41.6526 10.4367,-41.6526 -7.2497,0 -21.3592,22.2551 -21.5732,34.0277 -0.1403,7.7228 -5.3772,11.3426 -16.4098,11.3426 -8.912,0 -16.2037,-2.9167 -16.2037,-6.4815 0,-11.4761 -12.2806,-6.9043 -19.9506,7.4273 -7.222,13.4945 -6.6014,13.7743 20.8368,9.3946 15.5542,-2.4827 34.843,-8.8089 42.8638,-14.0581 z m 575.652,-152.5192 c 3.1411,-5.0823 0.5892,-5.0625 -9.0002,0.07 -7.3613,3.9396 -15.3569,10.3549 -17.768,14.2562 -3.141,5.0823 -0.5891,5.0625 9.0003,-0.07 7.3612,-3.9396 15.3568,-10.3549 17.7679,-14.2562 z m -295.3282,-13.0465 c 0,-3.5648 -2.9167,-4.6789 -6.4815,-2.4757 -3.5648,2.2032 -6.4815,6.9224 -6.4815,10.4872 0,3.5648 2.9167,4.6789 6.4815,2.4757 3.5648,-2.2031 6.4815,-6.9224 6.4815,-10.4872 z m 505.555,4.0058 c 0,-5.3472 -2.9166,-9.7222 -6.4815,-9.7222 -3.5648,0 -6.4814,4.375 -6.4814,9.7222 0,5.3472 2.9166,9.7222 6.4814,9.7222 3.5649,0 6.4815,-4.375 6.4815,-9.7222 z m -55.7971,-13.4641 c 4.8424,-12.6191 1.6072,-11.5794 -12.5108,4.0208 -9.8451,10.8787 -10.1138,12.5243 -1.5057,9.2211 5.763,-2.2115 12.0704,-8.1703 14.0165,-13.2419 z m 560.05576,-36.4433 c 14.3595,-14.3594 6.5747,-180.185 -8.4588,-180.185 -11.8758,0 -102.1313,-75.5311 -111.4047,-93.23 -10.0724,-19.2239 -57.4662,-44.6607 -73.6446,-39.5259 -27.1534,8.6181 -43.1948,38.8955 -48.0482,90.6883 -2.5558,27.2749 -7.0288,57.8956 -9.9399,68.046 -6.283,21.9073 -2.2494,24.2549 50.7979,29.5658 62.1147,6.2188 110.1179,23.3447 141.074,50.3306 15.6823,13.671 28.5133,30.2519 28.5133,36.8466 0,16.4327 11.4541,45.2414 17.9877,45.2414 2.94,0 8.8456,-3.5 13.1233,-7.7778 z M 436.59134,1357.2941 c 42.6241,-31.0631 60.5952,-59.001 54.0507,-84.0272 -2.6052,-9.9624 0.083,-13.6457 11.15,-15.2789 10.1869,-1.5033 17.1089,-9.4788 22.9628,-26.4576 4.609,-13.368 7.2109,-24.3055 5.782,-24.3055 -5.9037,0 -139.3158,163.5484 -139.3158,170.7858 0,6.471 21.5936,-3.3889 45.3703,-20.7166 z M 1470.8139,1135.1022 c 10.6833,-20.6591 12.3845,-61.3137 2.8133,-67.229 -3.5648,-2.2032 -6.4814,-9.667 -6.4814,-16.5862 0,-24.5517 -22.8269,-38.5063 -62.9881,-38.5063 -30.8047,0 -39.2855,2.5643 -50.2314,15.1884 -7.2431,8.3536 -17.5443,16.8734 -22.8915,18.9327 -7.7598,2.9886 -7.4327,3.8476 1.6204,4.256 6.2384,0.2813 11.3425,3.5073 11.3425,7.1684 0,7.2229 25.7426,37.0593 70.5546,81.7749 31.0537,30.9869 37.9704,30.3724 56.2616,-4.9989 z m -364.5517,1098.8581 c 4.2411,-26.1348 14.5857,-41.5512 27.8812,-41.5512 13.4592,0 10.7892,28.2939 -4.5048,47.737 -18.9897,24.1415 -27.9146,21.7799 -23.3764,-6.1858 z M 540.29494,1975.5819 c 0,-5.181 15.6743,-26.2597 34.8317,-46.8415 30.246,-32.4946 36.1971,-36.2883 45.2015,-28.8154 9.236,7.6653 7.4632,11.0344 -16.2174,30.8189 -14.6229,12.2171 -32.2585,29.423 -39.1904,38.2354 -14.1268,17.9593 -24.6254,20.7742 -24.6254,6.6026 z m -293.8269,-33.7898 c -9.7193,-9.7193 -2.6617,-24.5362 29.0584,-61.0056 56.9671,-65.4964 65.7363,-39.9855 10.7532,31.2828 -26.1454,33.8894 -31.5844,37.95 -39.8116,29.7228 z m 379.3823,-48.8271 c -12.1923,-12.1924 -9.4609,-31.1111 4.4918,-31.1111 12.1202,0 20.1378,11.8234 20.1378,29.6967 0,11.2191 -14.0197,12.0242 -24.6296,1.4144 z m -445.8609,-40.0171 c -1.8796,-4.8982 5.756,-18.7524 16.968,-30.787 11.2121,-12.0346 27.9884,-32.0894 37.2808,-44.5662 36.7826,-49.3878 59.7606,-69.1242 59.7606,-51.3298 0,17.5866 -91.2493,135.589 -104.8488,135.589 -3.1587,0 -7.281,-4.0077 -9.1606,-8.906 z m 340.8611,-25.9967 c 0,-13.2706 30.9106,-31.2607 45.6657,-26.5775 18.3594,5.827 15.6806,12.2721 -10.2375,24.6316 -27.8263,13.2694 -35.4282,13.687 -35.4282,1.9459 z m -17.1198,-26.7214 c -4.7869,-12.4745 14.346,-42.0795 27.1948,-42.0795 15.1714,0 17.9615,16.6792 5.8757,35.1245 -12.2186,18.6479 -27.3614,21.8326 -33.0705,6.955 z M 3463.44,1730.5428 c 0,-4.4898 5.6981,-11.7217 12.6625,-16.071 17.0901,-10.673 25.188,2.5118 9.0514,14.7369 -15.0404,11.3946 -21.7139,11.8046 -21.7139,1.3341 z M 135.52564,1706.821 c -5.2829,-8.548 14.552,-26.4484 29.3067,-26.4484 17.9798,0 15.3953,16.0445 -4.0087,24.8855 -19.8868,9.0611 -20.6353,9.1073 -25.298,1.5629 z m 236.2509,-33.2245 c 0,-21.3353 24.5229,-51.5572 41.835,-51.5572 14.767,0 12.2307,16.377 -7.0482,45.5093 -20.6398,31.1889 -34.7868,33.6484 -34.7868,6.0479 z m 1591.89716,-5.0621 c -6.726,-10.883 4.2598,-33.5321 16.2645,-33.5321 9.2424,0 12.207,4.7223 12.207,19.4444 0,14.9264 -2.9231,19.4444 -12.5804,19.4444 -6.9192,0 -14.0702,-2.4105 -15.8911,-5.3567 z m 1467.3589,-22.4523 c -16.0416,-7.723 -30.0615,-14.5133 -31.1552,-15.0895 -1.0938,-0.5762 7.5935,-14.6421 19.305,-31.2574 17.766,-25.2049 23.8354,-29.5717 36.6363,-26.3588 8.4385,2.1179 19.6656,0.2631 24.9492,-4.1219 8.3225,-6.907 7.6122,-9.4771 -5.3142,-19.2274 -14.4884,-10.9286 -14.5792,-11.6321 -3.136,-24.2767 6.4816,-7.1621 15.1565,-12.2383 19.2776,-11.2806 4.121,0.9577 5.3053,0.5178 2.6317,-0.9772 -8.5802,-4.7985 -5.3536,-13.5796 18.9496,-51.5716 25.5202,-39.8946 79.6164,-154.9003 79.7886,-169.6267 0.077,-6.5795 5.5898,-7.8149 21.0631,-4.7203 25.8729,5.1746 69.7819,33.4912 69.7819,45.0018 0,10.8252 -22.4866,30.2092 -52.7999,45.5148 -30.902,15.6029 -73.2344,59.0351 -67.1444,68.889 2.6917,4.3552 11.2983,5.9336 20.1885,3.7023 14.1825,-3.5596 15.4966,-1.9192 15.4966,19.3454 0,23.782 -8.1986,44.47 -23.8102,60.0816 -7.4122,7.4122 -6.2287,11.8555 7.5052,28.1773 20.7983,24.7173 20.5119,29.553 -3.7001,62.4763 -21.5039,29.2407 -28.3371,32.7343 -34.1906,17.4805 -5.9462,-15.4955 -40.1232,-11.7939 -59.8426,6.4815 -20.646,19.1341 -17.7084,19.0608 -54.4801,1.3576 z m 139.3518,-56.4502 c 0,-6.3097 -7.6831,-10.4567 -21.889,-11.8147 -25.6304,-2.4501 -41.7681,8.8261 -26.6679,18.6343 14.5704,9.464 48.5569,4.6908 48.5569,-6.8196 z m -35.6482,-84.2591 c 11.848,-7.6567 1.6145,-7.6567 -16.2036,0 -8.5474,3.6729 -9.6514,5.6917 -3.2408,5.9266 5.3472,0.1958 14.0972,-2.471 19.4444,-5.9266 z m -3054.93506,105.864 c -8.7674,-8.7673 -3.9473,-21.6049 8.1119,-21.6049 19.318,0 32.9375,6.9869 32.9375,16.8972 0,9.27 -32.7331,13.024 -41.0494,4.7077 z M 3615.7772,1194.2985 c -2.1907,-3.5448 -0.569,-29.7947 3.6039,-58.3333 7.0933,-48.5115 8.6099,-51.8883 23.3033,-51.8883 8.644,0 27.1505,5.8333 41.1258,12.9629 13.9752,7.1297 32.9622,12.963 42.1932,12.963 28.4143,0 55.0289,17.6071 55.0289,36.4048 0,16.4005 -0.5872,16.5973 -43.0075,14.4168 -39.3168,-2.0208 -43.4568,-0.9955 -48.2454,11.9491 -2.8809,7.7877 -11.0442,17.2669 -18.1405,21.0648 -16.2569,8.7004 -50.5941,8.9832 -55.8617,0.4602 z m 142.5699,-95.4672 c -15.3052,-3.7621 -29.1666,-14.1232 -29.1666,-21.8015 0,-9.8397 22.4597,-17.7438 40.5782,-14.2803 14.4626,2.7648 17.7551,6.8598 17.7551,22.083 0,18.7185 -3.3751,20.3384 -29.1667,13.9988 z M 1885.5142,70.011899 c -6.9573,-8.4251 -30.9951,-25.0611 -53.4175,-36.9688 -22.4223,-11.9077 -40.7924,-24.2147003 -40.8225,-27.3489003 -0.092,-9.5757 91.2093,2.6374 119.6474,16.0049003 14.6685,6.895 31.4706,20.6632 37.338,30.5959 10.0897,17.0806 9.992,18.4817 -1.8018,25.8471 -19.8978,12.426399 -46.9484,8.817599 -60.9436,-8.1302 z"
       id="path836" />
  </g>
</svg>
